<?xml version="1.0" standalone="no"?>
<!DOCTYPE svg PUBLIC "-//W3C//DTD SVG 20010904//EN"
 "http://www.w3.org/TR/2001/REC-SVG-20010904/DTD/svg10.dtd">
<svg version="1.0" xmlns="http://www.w3.org/2000/svg"
 width="1024.000000pt" height="1024.000000pt" viewBox="0 0 1024.000000 1024.000000"
 preserveAspectRatio="xMidYMid meet">

<g transform="translate(0.000000,1024.000000) scale(0.100000,-0.100000)"
fill="#000000" stroke="none">
<path d="M0 5120 l0 -5120 5120 0 5120 0 0 5120 0 5120 -5120 0 -5120 0 0
-5120z m6995 3502 c234 -24 446 -72 632 -144 134 -52 73 -49 -80 3 -133 46
-329 87 -487 103 -172 18 -649 32 -998 29 l-173 -1 -54 -41 c-286 -216 -839
-778 -1233 -1253 -62 -74 -75 -86 -97 -82 -14 2 -35 -1 -48 -8 -20 -12 -19
-13 28 -20 28 -3 543 -4 1145 -1 1205 7 1189 7 1309 -53 130 -65 235 -211 261
-362 7 -46 10 -263 8 -683 l-3 -616 -495 -497 -495 -496 -104 0 -104 0 -136
139 c-105 107 -150 146 -197 169 -176 88 -370 56 -527 -88 -62 -57 -157 -183
-157 -209 0 -7 -37 -11 -116 -11 -65 0 -125 -5 -137 -11 -61 -31 -77 -115 -33
-166 23 -27 28 -28 142 -33 l119 -5 7 -42 c18 -107 43 -138 432 -533 202 -206
393 -392 423 -412 130 -89 304 -98 443 -22 31 17 197 176 491 470 243 244 444
444 445 444 0 0 0 -193 -2 -429 -3 -406 -4 -432 -24 -492 -52 -154 -158 -255
-319 -303 -49 -14 -220 -16 -1751 -16 -1833 0 -1746 -2 -1857 51 -92 45 -186
151 -226 257 -22 57 -22 63 -27 940 l-5 882 -47 -92 c-94 -185 -102 -208 -101
-275 1 -42 -3 -63 -10 -63 -8 0 -8 -3 1 -8 14 -9 9 -24 -55 -162 -209 -451
-468 -1174 -598 -1665 -19 -71 -41 -157 -50 -190 -8 -33 -33 -141 -55 -240
-22 -99 -42 -190 -45 -203 -3 -13 -10 -20 -14 -17 -5 3 -42 51 -82 108 -171
238 -268 499 -313 842 -17 128 -36 484 -36 678 l0 119 118 241 c252 514 449
860 749 1314 168 256 375 545 477 667 l66 79 0 286 c0 351 8 390 105 519 55
73 141 133 234 164 59 19 91 22 296 24 l230 3 230 228 c239 237 470 446 664
603 229 184 538 407 729 524 51 32 92 59 90 61 -2 2 -66 -1 -143 -6 -77 -4
-585 -10 -1130 -12 -940 -4 -998 -6 -1145 -26 -458 -62 -789 -209 -1041 -460
-97 -97 -220 -258 -263 -343 -15 -32 -32 -55 -37 -52 -5 3 -6 -3 -2 -12 3 -10
2 -15 -3 -12 -5 4 -10 -8 -11 -24 -1 -17 -7 -35 -12 -42 -5 -6 -19 -40 -31
-76 -12 -36 -28 -72 -36 -81 -8 -9 -11 -18 -8 -22 3 -3 3 -16 -1 -28 -7 -20
-8 -20 -17 -5 -12 21 9 89 25 79 7 -4 8 0 3 12 -7 20 21 105 36 105 5 0 6 4 3
10 -10 17 72 180 150 295 278 413 728 645 1350 695 207 17 201 17 1950 15
1133 -2 1705 -6 1780 -13z m-5296 -1228 c4 3 0 -26 -8 -64 -9 -37 -18 -67 -21
-65 -4 2 -5 -10 -2 -28 3 -26 1 -29 -8 -17 -9 12 -10 0 -5 -48 4 -41 3 -62 -4
-58 -5 3 -12 0 -14 -6 -9 -23 -7 30 4 106 6 42 15 73 20 70 5 -3 6 2 3 10 -3
8 0 41 7 73 7 32 14 50 17 40 2 -9 7 -15 11 -13z m-76 -451 l-14 -38 5 40 c3
22 6 63 7 90 l1 50 8 -52 c6 -38 4 -63 -7 -90z m6105 -1393 c102 -44 212 -196
215 -297 3 -84 -20 -139 -86 -210 -37 -39 -66 -62 -74 -59 -8 3 -11 1 -8 -4 3
-6 -1 -10 -9 -10 -9 0 -15 -3 -14 -7 2 -5 1 -8 -2 -8 -3 0 -16 -10 -29 -22
-19 -17 -28 -20 -38 -12 -10 9 -13 8 -14 -2 0 -11 -2 -11 -6 -1 -7 18 -36 -8
-298 -267 -126 -124 -304 -296 -394 -381 -90 -85 -174 -165 -187 -178 -16 -16
-24 -19 -27 -10 -4 8 -6 7 -6 -4 -1 -11 -6 -15 -15 -12 -9 3 -13 -1 -13 -12 1
-9 -5 -19 -13 -21 -13 -4 -13 -3 0 6 8 6 10 11 4 11 -6 0 -14 -3 -18 -7 -4 -5
-12 -9 -17 -9 -5 -1 -13 -2 -19 -3 -5 0 -10 -6 -10 -12 0 -5 5 -7 12 -3 6 4 8
3 5 -4 -4 -5 -16 -8 -27 -5 -11 3 -20 1 -20 -5 0 -12 -29 -24 -41 -16 -5 3 -6
10 -3 16 4 6 10 5 15 -3 6 -10 9 -10 9 -2 0 22 -17 23 -36 1 -11 -12 -13 -18
-6 -14 7 4 12 2 12 -5 0 -7 -8 -9 -21 -6 -16 4 -19 2 -14 -11 5 -14 4 -14 -13
1 -10 9 -22 14 -26 10 -4 -5 -11 -8 -14 -8 -18 -1 -52 -27 -52 -40 0 -8 -8
-15 -19 -15 -25 0 -47 -26 -29 -34 9 -4 8 -5 -2 -4 -8 1 -25 -4 -38 -11 -13
-7 -30 -10 -38 -7 -7 3 -24 -5 -37 -17 -13 -12 -29 -23 -37 -25 -8 -2 -18 -9
-22 -15 -6 -9 -8 -8 -8 2 0 11 -3 11 -15 1 -8 -6 -19 -9 -25 -5 -5 3 -10 2
-10 -4 0 -6 -7 -8 -15 -5 -11 5 -13 2 -9 -10 5 -13 0 -15 -25 -12 -17 2 -28
-1 -25 -5 3 -5 -7 -9 -21 -9 -18 0 -24 -4 -19 -12 5 -8 0 -7 -11 2 -11 9 -16
10 -11 3 9 -16 1 -16 -26 -2 -15 8 -19 8 -14 0 8 -12 -34 -32 -69 -34 -11 0
-29 -6 -39 -13 -13 -9 -25 -10 -38 -3 -18 10 -19 9 -22 -13 0 -7 -11 -14 -24
-14 -21 -1 -22 0 -7 16 11 12 13 20 6 25 -6 3 -11 -1 -11 -10 0 -9 -4 -13 -10
-10 -9 6 -14 -7 -11 -27 0 -4 -7 -4 -16 -1 -11 4 -13 8 -5 11 19 6 14 22 -8
22 -11 0 -28 10 -38 21 -9 12 -30 29 -46 39 -16 10 -104 93 -196 184 -92 91
-173 166 -179 166 -20 0 -85 33 -98 50 -7 8 -27 43 -44 77 -28 55 -31 70 -27
130 5 93 40 165 119 245 74 76 122 102 210 119 84 15 160 0 221 -44 24 -18
109 -101 188 -185 189 -200 251 -232 355 -183 27 13 232 211 635 616 332 333
611 605 632 616 85 44 187 47 276 9z m-1255 -1605 c-3 -9 -8 -14 -10 -11 -3 3
-2 9 2 15 9 16 15 13 8 -4z"/>
<path d="M4400 6443 c0 -5 -14 -9 -32 -10 -17 -1 -34 -6 -37 -10 -3 -5 -53
-46 -111 -93 -58 -47 -115 -94 -126 -105 -72 -68 -99 -90 -108 -90 -6 0 -11
-5 -11 -12 0 -15 -16 -31 -35 -35 -8 -2 -34 -15 -57 -30 -23 -16 -47 -28 -53
-28 -14 0 -34 -21 -38 -38 -3 -17 57 -52 91 -52 15 0 40 6 55 14 40 22 472
459 472 479 0 9 -2 17 -5 17 -3 0 -5 -3 -5 -7z"/>
<path d="M4730 6347 c-57 -29 -68 -120 -21 -168 l29 -29 891 0 c644 0 897 3
915 11 29 13 56 64 56 104 0 17 -12 39 -34 61 l-34 34 -888 0 c-693 0 -894 -3
-914 -13z"/>
<path d="M4395 5579 c5 -15 4 -19 -4 -15 -6 4 -10 3 -9 -2 2 -5 -31 -40 -72
-79 -178 -166 -220 -203 -228 -203 -4 0 -25 -16 -45 -35 -20 -19 -40 -35 -45
-35 -4 0 -13 -9 -20 -20 -7 -11 -16 -20 -22 -20 -5 0 -29 -13 -53 -30 -25 -16
-54 -30 -66 -30 -12 0 -21 -4 -21 -9 0 -15 -32 -22 -49 -10 -9 7 5 -9 31 -35
41 -40 52 -46 90 -46 25 0 54 8 68 18 14 9 118 109 232 223 223 220 244 250
227 313 -5 20 -12 36 -15 36 -3 0 -2 -10 1 -21z"/>
<path d="M4731 5416 c-54 -30 -68 -115 -27 -163 l24 -28 894 -3 c491 -1 903 0
916 3 29 7 62 61 62 102 0 22 -10 43 -29 65 l-29 33 -894 2 c-729 2 -897 0
-917 -11z"/>
<path d="M4370 4682 c0 -7 -6 -12 -14 -12 -8 0 -20 -13 -28 -30 -7 -16 -16
-30 -21 -30 -4 0 -17 -11 -29 -25 -12 -14 -28 -23 -34 -21 -7 3 -14 1 -16 -5
-2 -5 -14 -11 -28 -14 -13 -3 -28 -11 -32 -19 -5 -8 -15 -21 -23 -29 -8 -8
-12 -16 -10 -19 2 -2 -11 -12 -30 -23 -19 -10 -35 -25 -35 -33 0 -12 -3 -12
-16 -2 -13 11 -16 10 -21 -8 -3 -12 -9 -20 -13 -17 -5 3 -15 -1 -23 -9 -8 -8
-17 -12 -21 -9 -3 4 -6 -2 -6 -11 0 -15 -5 -17 -27 -11 -42 10 -82 12 -77 3 5
-7 -26 -13 -48 -9 -5 0 -8 -3 -8 -9 0 -5 -6 -10 -14 -10 -7 0 -19 -7 -26 -15
-7 -9 -19 -14 -27 -11 -7 3 -13 2 -13 -3 0 -12 -63 -10 -79 3 -11 8 -13 8 -7
-1 4 -7 3 -13 -1 -13 -5 0 -15 6 -22 13 -10 10 -11 9 -6 -3 3 -9 51 -61 108
-116 108 -107 136 -121 202 -103 38 11 468 440 485 484 14 38 5 87 -20 110
-11 10 -20 13 -20 7z"/>
<path d="M3805 4420 c10 -11 20 -20 23 -20 3 0 -3 9 -13 20 -10 11 -20 20 -23
20 -3 0 3 -9 13 -20z"/>
<path d="M1682 7370 c0 -14 2 -19 5 -12 2 6 2 18 0 25 -3 6 -5 1 -5 -13z"/>
</g>
</svg>
